<?xml version="1.0" standalone="no"?>
<!DOCTYPE svg PUBLIC "-//W3C//DTD SVG 20010904//EN"
 "http://www.w3.org/TR/2001/REC-SVG-20010904/DTD/svg10.dtd">
<svg version="1.0" xmlns="http://www.w3.org/2000/svg"
 width="640.000000pt" height="1280.000000pt" viewBox="0 0 640.000000 1280.000000"
 preserveAspectRatio="xMidYMid meet">
<metadata>
Created by potrace 1.15, written by Peter Selinger 2001-2017
</metadata>
<g transform="translate(0.000000,1280.000000) scale(0.100000,-0.100000)" fill="currentColor" stroke="none">
<path d="M2194 7354 c-10 -38 1 -118 30 -214 30 -103 21 -125 -27 -65 -18 22
-50 60 -73 84 -36 39 -44 43 -70 37 l-29 -8 92 -86 c50 -48 96 -99 102 -114 6
-15 20 -80 32 -143 22 -120 42 -162 69 -145 19 12 18 61 -5 182 -10 52 -15
106 -11 121 3 14 29 57 58 94 49 65 91 143 83 152 -13 12 -57 -37 -99 -113
-27 -48 -53 -89 -57 -92 -5 -3 -9 13 -9 35 0 58 -19 188 -36 249 -16 57 -39
69 -50 26z"/>
<path d="M1582 7198 c-29 -29 -4 -71 118 -201 40 -43 71 -80 68 -82 -3 -3 -43
6 -89 20 -86 26 -139 29 -146 8 -7 -20 32 -33 140 -47 142 -19 163 -30 226
-127 36 -55 63 -85 86 -96 19 -9 38 -14 41 -10 12 11 -19 69 -69 131 -68 85
-78 109 -88 201 -12 110 -27 179 -44 201 -13 18 -14 17 -25 -11 -10 -25 -8
-44 9 -112 13 -50 18 -89 13 -102 -7 -19 -18 -7 -88 91 -83 116 -130 158 -152
136z"/>
<path d="M3170 6353 c0 -22 20 -85 46 -148 61 -148 60 -147 38 -138 -11 3 -54
31 -97 60 -80 54 -92 59 -116 44 -21 -13 -9 -24 91 -82 125 -73 188 -136 212
-214 10 -33 27 -82 39 -109 l20 -48 15 27 c17 33 10 76 -24 154 -41 90 -41
142 -4 234 38 95 50 171 27 180 -24 9 -37 -15 -68 -129 -15 -59 -30 -109 -33
-111 -2 -3 -9 22 -16 54 -35 176 -71 263 -111 263 -15 0 -19 -7 -19 -37z"/>
<path d="M2842 6098 c-20 -20 -14 -65 18 -140 17 -39 29 -75 28 -80 -2 -4 -37
22 -78 58 -123 108 -195 146 -215 114 -10 -17 73 -96 165 -156 49 -33 90 -62
90 -66 0 -4 -53 -9 -117 -10 -112 -3 -118 -4 -121 -24 -4 -30 38 -35 156 -18
112 15 138 9 199 -46 24 -23 69 -53 100 -67 47 -22 59 -24 81 -13 l27 12 -25
17 c-56 36 -127 99 -157 139 -17 23 -53 98 -80 167 -26 69 -50 125 -53 125 -4
0 -11 -5 -18 -12z"/>
<path d="M4490 5573 c0 -31 31 -117 97 -272 8 -19 -27 0 -92 50 -67 50 -98 62
-121 44 -18 -13 -18 -14 1 -29 11 -8 45 -29 75 -47 85 -51 158 -107 176 -135
10 -14 25 -55 35 -92 22 -77 47 -116 78 -120 20 -3 21 0 15 40 -3 24 -17 78
-30 121 -28 90 -30 170 -9 267 8 36 14 74 14 85 0 16 -36 -62 -73 -160 -7 -18
-8 -18 -17 -3 -5 9 -21 61 -35 115 -35 130 -57 173 -89 173 -22 0 -25 -4 -25
-37z"/>
<path d="M4150 5308 c4 -18 20 -64 34 -103 15 -38 26 -80 24 -93 -3 -22 -12
-16 -93 59 -49 45 -103 90 -120 101 -59 36 -102 13 -65 -35 11 -14 67 -57 124
-96 58 -39 108 -76 111 -81 4 -6 -34 -10 -102 -10 -108 0 -133 -7 -133 -36 0
-10 38 -12 158 -11 176 2 152 10 277 -88 74 -58 115 -70 115 -35 0 27 -39 62
-123 112 -99 59 -105 69 -136 220 -12 56 -45 118 -68 125 -8 3 -9 -6 -3 -29z"/>
<path d="M5321 4642 c-16 -31 -13 -117 9 -212 11 -47 20 -90 20 -97 0 -25 -27
-1 -84 72 -57 74 -90 94 -102 60 -7 -16 17 -51 97 -142 70 -80 98 -131 130
-237 l28 -91 -6 127 -6 127 66 88 c36 48 73 104 82 125 18 36 15 68 -5 68 -14
0 -67 -75 -103 -147 -17 -35 -34 -63 -38 -63 -3 0 -10 37 -13 83 -10 115 -33
229 -50 245 -12 12 -16 11 -25 -6z"/>
<path d="M4707 4463 c-29 -28 25 -116 126 -208 83 -75 76 -80 -56 -41 -93 27
-127 24 -127 -10 0 -13 3 -24 8 -24 4 0 59 -8 123 -19 146 -24 187 -44 237
-119 46 -66 67 -87 105 -101 21 -8 27 -8 27 2 0 20 -51 96 -103 153 -26 28
-51 64 -57 78 -5 15 -10 88 -10 162 0 123 -2 135 -17 132 -35 -7 -45 -50 -32
-143 10 -81 7 -113 -9 -89 -45 66 -158 207 -175 219 -24 17 -31 18 -40 8z"/>
<path d="M4810 3231 c0 -27 15 -98 35 -162 19 -62 33 -115 30 -117 -2 -2 -32
23 -68 56 -35 33 -74 65 -86 72 -29 15 -51 6 -51 -20 0 -14 26 -39 87 -83 107
-77 161 -123 167 -145 53 -192 70 -228 100 -216 26 10 16 72 -29 165 -19 41
-35 89 -35 109 0 21 19 75 50 140 47 98 62 160 41 160 -20 0 -52 -56 -76 -136
-14 -46 -29 -84 -33 -84 -4 0 -17 50 -30 111 -26 129 -55 199 -83 199 -16 0
-19 -8 -19 -49z"/>
<path d="M5457 3177 c-23 -26 -60 -132 -72 -212 -13 -77 -16 -82 -32 -52 -7
15 -22 55 -33 90 -23 75 -45 107 -71 107 -30 0 -24 -30 31 -150 60 -132 63
-167 20 -275 -33 -84 -37 -112 -16 -140 13 -19 15 -18 30 15 8 19 23 70 31
112 23 106 51 144 161 218 51 35 103 74 115 86 22 23 22 24 3 24 -20 0 -61
-25 -158 -95 -27 -20 -50 -34 -52 -32 -2 2 14 48 36 103 59 150 68 190 48 210
-15 15 -18 15 -41 -9z"/>
<path d="M4960 2104 c-14 -36 2 -111 46 -221 19 -47 33 -87 32 -89 -2 -1 -37
22 -78 52 -79 58 -109 71 -137 59 -16 -6 -14 -10 12 -31 17 -13 66 -46 110
-73 113 -69 121 -80 145 -196 27 -131 55 -172 89 -131 16 19 3 68 -44 171 -19
42 -35 84 -35 94 0 10 22 64 50 120 27 56 53 121 56 144 l6 42 -30 -31 c-16
-18 -39 -58 -51 -90 -12 -33 -27 -72 -35 -89 -12 -28 -13 -29 -24 -9 -6 12
-19 65 -28 120 -23 140 -63 214 -84 158z"/>
<path d="M5598 2013 c-25 -27 -38 -66 -63 -188 l-23 -110 -16 37 c-9 20 -25
65 -37 100 -26 81 -41 102 -68 93 -27 -8 -22 -27 36 -157 60 -138 62 -154 19
-265 -40 -103 -43 -125 -20 -144 14 -11 19 -10 35 9 10 13 23 48 29 80 7 31
16 79 22 105 13 64 52 106 141 155 67 37 137 96 126 106 -9 10 -86 -33 -152
-83 -38 -29 -70 -51 -72 -49 -1 1 18 57 43 123 48 127 59 197 31 203 -8 1 -23
-5 -31 -15z"/>
<path d="M5749 673 c-6 -16 -14 -89 -16 -165 -4 -99 -9 -135 -18 -132 -6 3
-29 32 -50 65 -54 84 -125 139 -125 96 0 -17 69 -116 121 -176 53 -60 61 -95
57 -239 -1 -67 0 -122 4 -122 4 0 16 12 27 26 18 23 21 41 21 133 0 131 13
162 100 246 59 57 111 135 91 135 -29 0 -62 -28 -101 -86 -44 -65 -90 -107
-90 -82 0 7 7 51 15 98 18 102 19 170 3 205 -15 32 -26 32 -39 -2z"/>
<path d="M5095 600 c-9 -14 31 -98 94 -199 28 -46 49 -86 46 -89 -3 -3 -40 11
-84 32 -95 45 -135 50 -139 20 -3 -24 31 -41 139 -69 120 -31 144 -49 204
-150 58 -99 86 -130 110 -122 35 14 1 107 -58 156 -9 7 -27 30 -39 50 -21 33
-23 47 -23 195 0 111 -3 160 -12 163 -21 7 -36 -65 -30 -146 10 -126 -2 -128
-57 -8 -26 57 -61 121 -78 141 -29 35 -60 46 -73 26z"/>
</g>
</svg>
